# AI-EVOLVE Model: player_leg.obj
# Vertices: 18, Faces: 32

v 0.120000 -0.500000 0.000000
v 0.120000 0.500000 0.000000
v 0.084853 -0.500000 0.084853
v 0.084853 0.500000 0.084853
v 0.000000 -0.500000 0.120000
v 0.000000 0.500000 0.120000
v -0.084853 -0.500000 0.084853
v -0.084853 0.500000 0.084853
v -0.120000 -0.500000 0.000000
v -0.120000 0.500000 0.000000
v -0.084853 -0.500000 -0.084853
v -0.084853 0.500000 -0.084853
v -0.000000 -0.500000 -0.120000
v -0.000000 0.500000 -0.120000
v 0.084853 -0.500000 -0.084853
v 0.084853 0.500000 -0.084853
v 0.000000 -0.500000 0.000000
v 0.000000 0.500000 0.000000

f 1 2 4
f 1 4 3
f 3 4 6
f 3 6 5
f 5 6 8
f 5 8 7
f 7 8 10
f 7 10 9
f 9 10 12
f 9 12 11
f 11 12 14
f 11 14 13
f 13 14 16
f 13 16 15
f 15 16 2
f 15 2 1
f 17 1 3
f 17 3 5
f 17 5 7
f 17 7 9
f 17 9 11
f 17 11 13
f 17 13 15
f 17 15 1
f 18 4 2
f 18 6 4
f 18 8 6
f 18 10 8
f 18 12 10
f 18 14 12
f 18 16 14
f 18 2 16
