# AI-EVOLVE Model: tree_foliage.obj
# Vertices: 169, Faces: 264

v 0.000000 -1.500000 0.000000
v 0.000000 -1.500000 0.000000
v 0.000000 -1.500000 0.000000
v 0.000000 -1.500000 0.000000
v -0.000000 -1.500000 0.000000
v -0.000000 -1.500000 0.000000
v -0.000000 -1.500000 0.000000
v -0.000000 -1.500000 -0.000000
v -0.000000 -1.500000 -0.000000
v -0.000000 -1.500000 -0.000000
v 0.000000 -1.500000 -0.000000
v 0.000000 -1.500000 -0.000000
v 0.000000 -1.500000 -0.000000
v 0.388229 -1.448889 0.000000
v 0.336216 -1.448889 0.194114
v 0.194114 -1.448889 0.336216
v 0.000000 -1.448889 0.388229
v -0.194114 -1.448889 0.336216
v -0.336216 -1.448889 0.194114
v -0.388229 -1.448889 0.000000
v -0.336216 -1.448889 -0.194114
v -0.194114 -1.448889 -0.336216
v -0.000000 -1.448889 -0.388229
v 0.194114 -1.448889 -0.336216
v 0.336216 -1.448889 -0.194114
v 0.388229 -1.448889 -0.000000
v 0.750000 -1.299038 0.000000
v 0.649519 -1.299038 0.375000
v 0.375000 -1.299038 0.649519
v 0.000000 -1.299038 0.750000
v -0.375000 -1.299038 0.649519
v -0.649519 -1.299038 0.375000
v -0.750000 -1.299038 0.000000
v -0.649519 -1.299038 -0.375000
v -0.375000 -1.299038 -0.649519
v -0.000000 -1.299038 -0.750000
v 0.375000 -1.299038 -0.649519
v 0.649519 -1.299038 -0.375000
v 0.750000 -1.299038 -0.000000
v 1.060660 -1.060660 0.000000
v 0.918559 -1.060660 0.530330
v 0.530330 -1.060660 0.918559
v 0.000000 -1.060660 1.060660
v -0.530330 -1.060660 0.918559
v -0.918559 -1.060660 0.530330
v -1.060660 -1.060660 0.000000
v -0.918559 -1.060660 -0.530330
v -0.530330 -1.060660 -0.918559
v -0.000000 -1.060660 -1.060660
v 0.530330 -1.060660 -0.918559
v 0.918559 -1.060660 -0.530330
v 1.060660 -1.060660 -0.000000
v 1.299038 -0.750000 0.000000
v 1.125000 -0.750000 0.649519
v 0.649519 -0.750000 1.125000
v 0.000000 -0.750000 1.299038
v -0.649519 -0.750000 1.125000
v -1.125000 -0.750000 0.649519
v -1.299038 -0.750000 0.000000
v -1.125000 -0.750000 -0.649519
v -0.649519 -0.750000 -1.125000
v -0.000000 -0.750000 -1.299038
v 0.649519 -0.750000 -1.125000
v 1.125000 -0.750000 -0.649519
v 1.299038 -0.750000 -0.000000
v 1.448889 -0.388229 0.000000
v 1.254774 -0.388229 0.724444
v 0.724444 -0.388229 1.254774
v 0.000000 -0.388229 1.448889
v -0.724444 -0.388229 1.254774
v -1.254774 -0.388229 0.724444
v -1.448889 -0.388229 0.000000
v -1.254774 -0.388229 -0.724444
v -0.724444 -0.388229 -1.254774
v -0.000000 -0.388229 -1.448889
v 0.724444 -0.388229 -1.254774
v 1.254774 -0.388229 -0.724444
v 1.448889 -0.388229 -0.000000
v 1.500000 0.000000 0.000000
v 1.299038 0.000000 0.750000
v 0.750000 0.000000 1.299038
v 0.000000 0.000000 1.500000
v -0.750000 0.000000 1.299038
v -1.299038 0.000000 0.750000
v -1.500000 0.000000 0.000000
v -1.299038 0.000000 -0.750000
v -0.750000 0.000000 -1.299038
v -0.000000 0.000000 -1.500000
v 0.750000 0.000000 -1.299038
v 1.299038 0.000000 -0.750000
v 1.500000 0.000000 -0.000000
v 1.448889 0.388229 0.000000
v 1.254774 0.388229 0.724444
v 0.724444 0.388229 1.254774
v 0.000000 0.388229 1.448889
v -0.724444 0.388229 1.254774
v -1.254774 0.388229 0.724444
v -1.448889 0.388229 0.000000
v -1.254774 0.388229 -0.724444
v -0.724444 0.388229 -1.254774
v -0.000000 0.388229 -1.448889
v 0.724444 0.388229 -1.254774
v 1.254774 0.388229 -0.724444
v 1.448889 0.388229 -0.000000
v 1.299038 0.750000 0.000000
v 1.125000 0.750000 0.649519
v 0.649519 0.750000 1.125000
v 0.000000 0.750000 1.299038
v -0.649519 0.750000 1.125000
v -1.125000 0.750000 0.649519
v -1.299038 0.750000 0.000000
v -1.125000 0.750000 -0.649519
v -0.649519 0.750000 -1.125000
v -0.000000 0.750000 -1.299038
v 0.649519 0.750000 -1.125000
v 1.125000 0.750000 -0.649519
v 1.299038 0.750000 -0.000000
v 1.060660 1.060660 0.000000
v 0.918559 1.060660 0.530330
v 0.530330 1.060660 0.918559
v 0.000000 1.060660 1.060660
v -0.530330 1.060660 0.918559
v -0.918559 1.060660 0.530330
v -1.060660 1.060660 0.000000
v -0.918559 1.060660 -0.530330
v -0.530330 1.060660 -0.918559
v -0.000000 1.060660 -1.060660
v 0.530330 1.060660 -0.918559
v 0.918559 1.060660 -0.530330
v 1.060660 1.060660 -0.000000
v 0.750000 1.299038 0.000000
v 0.649519 1.299038 0.375000
v 0.375000 1.299038 0.649519
v 0.000000 1.299038 0.750000
v -0.375000 1.299038 0.649519
v -0.649519 1.299038 0.375000
v -0.750000 1.299038 0.000000
v -0.649519 1.299038 -0.375000
v -0.375000 1.299038 -0.649519
v -0.000000 1.299038 -0.750000
v 0.375000 1.299038 -0.649519
v 0.649519 1.299038 -0.375000
v 0.750000 1.299038 -0.000000
v 0.388229 1.448889 0.000000
v 0.336216 1.448889 0.194114
v 0.194114 1.448889 0.336216
v 0.000000 1.448889 0.388229
v -0.194114 1.448889 0.336216
v -0.336216 1.448889 0.194114
v -0.388229 1.448889 0.000000
v -0.336216 1.448889 -0.194114
v -0.194114 1.448889 -0.336216
v -0.000000 1.448889 -0.388229
v 0.194114 1.448889 -0.336216
v 0.336216 1.448889 -0.194114
v 0.388229 1.448889 -0.000000
v 0.000000 1.500000 0.000000
v 0.000000 1.500000 0.000000
v 0.000000 1.500000 0.000000
v 0.000000 1.500000 0.000000
v -0.000000 1.500000 0.000000
v -0.000000 1.500000 0.000000
v -0.000000 1.500000 0.000000
v -0.000000 1.500000 -0.000000
v -0.000000 1.500000 -0.000000
v -0.000000 1.500000 -0.000000
v 0.000000 1.500000 -0.000000
v 0.000000 1.500000 -0.000000
v 0.000000 1.500000 -0.000000

f 2 14 15
f 3 15 16
f 4 16 17
f 5 17 18
f 6 18 19
f 7 19 20
f 8 20 21
f 9 21 22
f 10 22 23
f 11 23 24
f 12 24 25
f 13 25 26
f 14 27 15
f 15 27 28
f 15 28 16
f 16 28 29
f 16 29 17
f 17 29 30
f 17 30 18
f 18 30 31
f 18 31 19
f 19 31 32
f 19 32 20
f 20 32 33
f 20 33 21
f 21 33 34
f 21 34 22
f 22 34 35
f 22 35 23
f 23 35 36
f 23 36 24
f 24 36 37
f 24 37 25
f 25 37 38
f 25 38 26
f 26 38 39
f 27 40 28
f 28 40 41
f 28 41 29
f 29 41 42
f 29 42 30
f 30 42 43
f 30 43 31
f 31 43 44
f 31 44 32
f 32 44 45
f 32 45 33
f 33 45 46
f 33 46 34
f 34 46 47
f 34 47 35
f 35 47 48
f 35 48 36
f 36 48 49
f 36 49 37
f 37 49 50
f 37 50 38
f 38 50 51
f 38 51 39
f 39 51 52
f 40 53 41
f 41 53 54
f 41 54 42
f 42 54 55
f 42 55 43
f 43 55 56
f 43 56 44
f 44 56 57
f 44 57 45
f 45 57 58
f 45 58 46
f 46 58 59
f 46 59 47
f 47 59 60
f 47 60 48
f 48 60 61
f 48 61 49
f 49 61 62
f 49 62 50
f 50 62 63
f 50 63 51
f 51 63 64
f 51 64 52
f 52 64 65
f 53 66 54
f 54 66 67
f 54 67 55
f 55 67 68
f 55 68 56
f 56 68 69
f 56 69 57
f 57 69 70
f 57 70 58
f 58 70 71
f 58 71 59
f 59 71 72
f 59 72 60
f 60 72 73
f 60 73 61
f 61 73 74
f 61 74 62
f 62 74 75
f 62 75 63
f 63 75 76
f 63 76 64
f 64 76 77
f 64 77 65
f 65 77 78
f 66 79 67
f 67 79 80
f 67 80 68
f 68 80 81
f 68 81 69
f 69 81 82
f 69 82 70
f 70 82 83
f 70 83 71
f 71 83 84
f 71 84 72
f 72 84 85
f 72 85 73
f 73 85 86
f 73 86 74
f 74 86 87
f 74 87 75
f 75 87 88
f 75 88 76
f 76 88 89
f 76 89 77
f 77 89 90
f 77 90 78
f 78 90 91
f 79 92 80
f 80 92 93
f 80 93 81
f 81 93 94
f 81 94 82
f 82 94 95
f 82 95 83
f 83 95 96
f 83 96 84
f 84 96 97
f 84 97 85
f 85 97 98
f 85 98 86
f 86 98 99
f 86 99 87
f 87 99 100
f 87 100 88
f 88 100 101
f 88 101 89
f 89 101 102
f 89 102 90
f 90 102 103
f 90 103 91
f 91 103 104
f 92 105 93
f 93 105 106
f 93 106 94
f 94 106 107
f 94 107 95
f 95 107 108
f 95 108 96
f 96 108 109
f 96 109 97
f 97 109 110
f 97 110 98
f 98 110 111
f 98 111 99
f 99 111 112
f 99 112 100
f 100 112 113
f 100 113 101
f 101 113 114
f 101 114 102
f 102 114 115
f 102 115 103
f 103 115 116
f 103 116 104
f 104 116 117
f 105 118 106
f 106 118 119
f 106 119 107
f 107 119 120
f 107 120 108
f 108 120 121
f 108 121 109
f 109 121 122
f 109 122 110
f 110 122 123
f 110 123 111
f 111 123 124
f 111 124 112
f 112 124 125
f 112 125 113
f 113 125 126
f 113 126 114
f 114 126 127
f 114 127 115
f 115 127 128
f 115 128 116
f 116 128 129
f 116 129 117
f 117 129 130
f 118 131 119
f 119 131 132
f 119 132 120
f 120 132 133
f 120 133 121
f 121 133 134
f 121 134 122
f 122 134 135
f 122 135 123
f 123 135 136
f 123 136 124
f 124 136 137
f 124 137 125
f 125 137 138
f 125 138 126
f 126 138 139
f 126 139 127
f 127 139 140
f 127 140 128
f 128 140 141
f 128 141 129
f 129 141 142
f 129 142 130
f 130 142 143
f 131 144 132
f 132 144 145
f 132 145 133
f 133 145 146
f 133 146 134
f 134 146 147
f 134 147 135
f 135 147 148
f 135 148 136
f 136 148 149
f 136 149 137
f 137 149 150
f 137 150 138
f 138 150 151
f 138 151 139
f 139 151 152
f 139 152 140
f 140 152 153
f 140 153 141
f 141 153 154
f 141 154 142
f 142 154 155
f 142 155 143
f 143 155 156
f 144 157 145
f 145 158 146
f 146 159 147
f 147 160 148
f 148 161 149
f 149 162 150
f 150 163 151
f 151 164 152
f 152 165 153
f 153 166 154
f 154 167 155
f 155 168 156
